<svg xmlns="http://www.w3.org/2000/svg" version="1.1" xmlns:xlink="http://www.w3.org/1999/xlink" xmlns:svgjs="http://svgjs.dev/svgjs" width="1000" height="292" viewBox="0 0 1000 292"><g transform="matrix(1,0,0,1,-0.6060606060606233,0.36917439469237934)"><svg viewBox="0 0 396 116" data-background-color="#ffffff" preserveAspectRatio="xMidYMid meet" height="292" width="1000" xmlns="http://www.w3.org/2000/svg" xmlns:xlink="http://www.w3.org/1999/xlink"><g id="tight-bounds" transform="matrix(1,0,0,1,0.2400000000000091,-0.1466583211791601)"><svg viewBox="0 0 395.52 116.29331664235829" height="116.29331664235829" width="395.52"><g><svg viewBox="0 0 601.0848581383917 176.7348092041237" height="116.29331664235829" width="395.52"><g transform="matrix(1,0,0,1,0,63.94302522061855)"><svg viewBox="0 0 395.52 48.8487587628866" height="48.8487587628866" width="395.52"><g id="textblocktransform"><svg viewBox="0 0 395.52 48.8487587628866" height="48.8487587628866" width="395.52" id="textblock"><g><svg viewBox="0 0 395.52 48.8487587628866" height="48.8487587628866" width="395.52"><g transform="matrix(1,0,0,1,0,0)"><svg width="395.52" viewBox="0 -29.450000762939453 242.49000549316406 29.950000762939453" height="48.8487587628866" data-palette-color="#1e55b3"><path d="M25.55 0L13.5 0 0-29.35 10.55-29.35 17.95-11.65 19.3-7.55 19.75-7.55 21.05-11.65 28.6-29.35 38.9-29.35 38.1-26.35 25.55 0ZM71.2 0L42.9 0 42.9-29.4 75-29.4 75-22.6 52.65-22.6 52.65-18.45 69.2-18.45 69.2-11.5 52.65-11.5 52.65-6.85 74.2-6.85 77.2-0.55Q77.2-0.35 75.85-0.18 74.5 0 71.2 0L71.2 0ZM114.55 0.5L114.55 0.5Q112.1 0.5 109.8-0.5 107.5-1.5 105.75-3.2L105.75-3.2Q104.85-4.1 103.95-5 103.05-5.9 102.15-6.8L102.15-6.8Q100.25-8.7 98.12-9.83 96-10.95 92.8-10.95L92.8-10.95 92.3-10.95 92.3 0 82.7 0 82.7-25.4 82.2-29.4 92.3-29.4 92.3-17.85 93.8-17.85Q94.65-17.85 95.12-18.07 95.6-18.3 96.15-18.9L96.15-18.9Q97.35-20.2 98.82-22.08 100.3-23.95 101.72-25.93 103.15-27.9 104.15-29.4L104.15-29.4 116.4-29.4 114.35-26.4Q113.1-25.05 111.57-23.45 110.05-21.85 108.55-20.33 107.05-18.8 105.8-17.55 104.55-16.3 103.8-15.6L103.8-15.6Q105.35-14.95 106.5-14.13 107.65-13.3 109-12.25L109-12.25Q110.25-11.3 111.17-10.5 112.1-9.7 113.4-8.7L113.4-8.7Q116.1-6.6 118.07-6.08 120.05-5.55 120.6-5.55L120.6-5.55 118.6 0Q118.1 0.15 117.02 0.33 115.95 0.5 114.55 0.5ZM135.34 0L125.59 0 125.59-25.4 125.09-29.45 148.24-29.45Q151.59-29.45 153.62-28.73 155.64-28 156.67-26.78 157.69-25.55 158.02-23.93 158.34-22.3 158.34-20.5L158.34-20.5 158.34-16.55Q158.34-14.15 157.57-12.13 156.79-10.1 154.72-8.88 152.64-7.65 148.74-7.65L148.74-7.65 145.29-7.65Q142.14-7.65 139.42-7.8 136.69-7.95 135.34-8.05L135.34-8.05 135.34 0ZM135.34-22.55L135.34-14.45 145.69-14.45Q147.34-14.45 147.99-15.1 148.64-15.75 148.64-17.2L148.64-17.2 148.64-19.75Q148.64-21.2 148.04-21.88 147.44-22.55 145.74-22.55L145.74-22.55 135.34-22.55ZM189.59 0L174.99 0Q169.69 0 167.27-2.38 164.84-4.75 164.84-9.95L164.84-9.95 164.84-19.5Q164.84-24.6 167.24-27 169.64-29.4 174.99-29.4L174.99-29.4 189.59-29.4Q194.84-29.4 197.27-27 199.69-24.6 199.69-19.5L199.69-19.5 199.69-9.95Q199.69-4.75 197.24-2.38 194.79 0 189.59 0L189.59 0ZM178.44-6.8L178.44-6.8 186.19-6.8Q190.09-6.8 190.09-10.35L190.09-10.35 190.09-19.1Q190.09-22.6 186.19-22.6L186.19-22.6 178.44-22.6Q176.44-22.6 175.44-21.8 174.44-21 174.44-19.1L174.44-19.1 174.44-10.35Q174.44-8.5 175.44-7.65 176.44-6.8 178.44-6.8ZM230.39 0L207.69 0 207.69-25.4 207.19-29.4 230.39-29.4Q236.44-29.4 239.46-27 242.49-24.6 242.49-19.5L242.49-19.5 242.49-9.95Q242.49-4.75 239.49-2.38 236.49 0 230.39 0L230.39 0ZM217.44-22.6L217.44-6.9 228.89-6.9Q232.74-6.9 232.79-10.45L232.79-10.45 232.79-19.1Q232.79-20.55 231.94-21.58 231.09-22.6 228.89-22.6L228.89-22.6 217.44-22.6Z" opacity="1" transform="matrix(1,0,0,1,0,0)" fill="#1e55b3" class="wordmark-text-0" data-fill-palette-color="primary" id="text-0"></path></svg></g></svg></g></svg></g></svg></g><g transform="matrix(1,0,0,1,424.35004893426805,0)"><svg viewBox="0 0 176.7348092041237 176.7348092041237" height="176.7348092041237" width="176.7348092041237"><g><svg viewBox="0 0 176.7348092041237 176.7348092041237" height="176.7348092041237" width="176.7348092041237"><g transform="matrix(1,0,0,1,46.71191590558419,46.71061058207968)"><svg viewBox="0 0 83.31097739295532 83.31358803996434" height="83.31358803996434" width="83.31097739295532"><g><svg xmlns="http://www.w3.org/2000/svg" xmlns:xlink="http://www.w3.org/1999/xlink" version="1.1" x="0" y="0" viewBox="18.350997924804688 18.347999572753906 63.30200958251953 63.303993225097656" enable-background="new 0 0 100 100" xml:space="preserve" height="83.31358803996434" width="83.31097739295532" class="icon-s-0" data-fill-palette-color="accent" id="s-0"><g fill="#ff585f" data-fill-palette-color="accent"><path fill="#ff585f" d="M80.951 48.597c-4.329-3.261-9.009-4.911-13.907-4.911-0.107 0-0.213 0-0.32 0.002-0.104-0.002-0.212-0.002-0.318-0.002-0.431 0-0.857 0.029-1.283 0.054 0.399-0.354 0.792-0.717 1.168-1.103 3.598-3.496 5.814-8.047 6.587-13.531 0.078-0.548-0.105-1.098-0.496-1.487-0.391-0.39-0.941-0.573-1.488-0.497-5.482 0.773-10.035 2.99-13.529 6.589-0.384 0.373-0.744 0.764-1.097 1.161 0.032-0.53 0.054-1.062 0.046-1.597 0.073-5.016-1.579-9.801-4.91-14.227-0.331-0.44-0.851-0.7-1.401-0.7-0.552 0-1.072 0.26-1.404 0.7-3.33 4.425-4.981 9.211-4.909 14.227-0.008 0.535 0.014 1.066 0.045 1.597-0.352-0.396-0.713-0.788-1.097-1.161-3.493-3.599-8.045-5.816-13.529-6.589-0.549-0.076-1.098 0.107-1.487 0.497-0.39 0.391-0.574 0.941-0.498 1.487 0.774 5.484 2.99 10.036 6.588 13.531 0.375 0.386 0.769 0.748 1.168 1.103-0.427-0.024-0.854-0.054-1.284-0.054-0.107 0-0.213 0-0.319 0.002-0.106-0.002-0.212-0.002-0.321-0.002-4.898 0-9.577 1.65-13.905 4.911-0.44 0.332-0.7 0.851-0.7 1.402 0 0.553 0.259 1.071 0.7 1.403 4.329 3.26 9.008 4.91 13.908 4.91 0.106 0 0.212 0 0.318-0.002 0.106 0.002 0.223-0.006 0.318 0.002 0.432 0 0.859-0.029 1.288-0.053-0.399 0.354-0.793 0.717-1.168 1.104-3.599 3.494-5.816 8.047-6.59 13.529-0.077 0.547 0.107 1.096 0.498 1.486 0.331 0.332 0.779 0.516 1.242 0.516 0.081 0 0.163-0.006 0.246-0.018 5.484-0.773 10.036-2.99 13.529-6.588 0.384-0.373 0.745-0.766 1.097-1.162-0.031 0.531-0.053 1.062-0.045 1.598-0.073 5.016 1.579 9.801 4.909 14.227 0.332 0.441 0.853 0.701 1.404 0.701 0.551 0 1.07-0.26 1.402-0.701 3.33-4.426 4.982-9.211 4.909-14.227 0.008-0.535-0.014-1.066-0.046-1.596 0.353 0.396 0.712 0.789 1.097 1.16 3.494 3.598 8.046 5.814 13.529 6.588 0.082 0.012 0.165 0.018 0.246 0.018 0.461 0 0.91-0.184 1.242-0.516 0.391-0.391 0.574-0.939 0.496-1.486-0.772-5.484-2.99-10.037-6.588-13.529-0.375-0.387-0.77-0.75-1.169-1.104 0.428 0.023 0.855 0.053 1.286 0.053 0.107 0 0.213 0 0.317-0.002 0.106 0.002 0.213 0.002 0.318 0.002 0.001 0 0 0 0.001 0 4.899 0 9.579-1.65 13.908-4.91 0.44-0.332 0.7-0.85 0.7-1.403C81.651 49.448 81.392 48.929 80.951 48.597zM48.784 49.509l1.217-1.215 1.214 1.215-1.214 1.215L48.784 49.509zM59.828 36.215c0.013-0.014 0.026-0.027 0.039-0.04 2.41-2.489 5.449-4.198 9.058-5.099-0.901 3.607-2.61 6.646-5.099 9.057-0.014 0.012-0.027 0.027-0.04 0.04-2.411 2.489-5.449 4.198-9.057 5.099C55.63 41.665 57.339 38.624 59.828 36.215zM47.2 33.247c-0.054-3.464 0.886-6.822 2.801-10.009 1.914 3.187 2.854 6.545 2.799 10.008 0 0.02 0 0.039 0 0.058 0.056 3.463-0.885 6.82-2.799 10.008-1.915-3.188-2.854-6.544-2.801-10.009C47.2 33.285 47.2 33.266 47.2 33.247zM31.077 31.076c3.608 0.9 6.647 2.609 9.056 5.099 0.014 0.013 0.027 0.026 0.04 0.04 2.489 2.409 4.199 5.448 5.098 9.057-3.606-0.901-6.646-2.61-9.057-5.101-0.013-0.013-0.027-0.026-0.039-0.039C33.686 37.722 31.977 34.684 31.077 31.076zM33.303 52.799c-0.009 0-0.018 0-0.027 0s-0.019 0-0.029 0c-0.096 0.002-0.192 0.004-0.289 0.004-3.361 0-6.62-0.941-9.72-2.803 3.099-1.861 6.358-2.801 9.717-2.801 0.098 0 0.195 0 0.292 0.002 0.019 0.001 0.038 0.001 0.056 0 0.098-0.002 0.195-0.002 0.292-0.002 3.359 0 6.619 0.939 9.717 2.801-3.099 1.862-6.359 2.803-9.719 2.803C33.496 52.803 33.399 52.801 33.303 52.799zM40.174 63.785c-0.014 0.014-0.027 0.025-0.041 0.039-2.409 2.488-5.448 4.197-9.056 5.1 0.899-3.607 2.608-6.646 5.098-9.059 0.013-0.012 0.026-0.025 0.041-0.039 2.409-2.488 5.448-4.197 9.056-5.098C44.371 58.336 42.662 61.375 40.174 63.785zM52.8 66.752c0.056 3.465-0.885 6.822-2.799 10.01-1.915-3.188-2.854-6.545-2.801-10.01 0-0.02 0-0.037 0-0.055-0.054-3.465 0.886-6.822 2.801-10.01 1.914 3.188 2.854 6.545 2.799 10.01C52.8 66.715 52.8 66.732 52.8 66.752zM68.924 68.924c-3.607-0.902-6.646-2.611-9.058-5.098-0.013-0.014-0.025-0.027-0.038-0.041-2.489-2.41-4.198-5.449-5.099-9.057 3.607 0.9 6.646 2.609 9.056 5.098 0.014 0.014 0.026 0.027 0.04 0.039C66.314 62.277 68.022 65.314 68.924 68.924zM67.042 52.803c-0.096 0-0.192-0.002-0.289-0.004-0.01 0-0.02 0-0.029 0-0.009 0-0.018 0-0.028 0-0.096 0.002-0.192 0.004-0.289 0.004-3.361 0-6.62-0.941-9.718-2.803 3.098-1.861 6.356-2.801 9.717-2.801 0.097 0 0.194 0 0.29 0.002 0.02 0.001 0.039 0.001 0.058 0 0.097-0.002 0.194-0.002 0.291-0.002 3.36 0 6.62 0.939 9.718 2.801C73.664 51.861 70.404 52.803 67.042 52.803z" data-fill-palette-color="accent"></path><circle fill="#ff585f" cx="66.725" cy="50" r="2.3" data-fill-palette-color="accent"></circle><circle fill="#ff585f" cx="33.276" cy="50" r="2.3" data-fill-palette-color="accent"></circle><circle fill="#ff585f" cx="50" cy="66.725" r="2.3" data-fill-palette-color="accent"></circle><circle fill="#ff585f" cx="50" cy="33.275" r="2.3" data-fill-palette-color="accent"></circle><circle fill="#ff585f" cx="61.827" cy="61.825" r="2.3" data-fill-palette-color="accent"></circle><circle fill="#ff585f" cx="38.174" cy="38.174" r="2.3" data-fill-palette-color="accent"></circle><circle fill="#ff585f" cx="38.174" cy="61.825" r="2.3" data-fill-palette-color="accent"></circle><circle fill="#ff585f" cx="61.827" cy="38.174" r="2.3" data-fill-palette-color="accent"></circle></g></svg></g></svg></g><g><path d="M18.774 59.187l-2.133 5.439-15.619 0.895 1.865-4.754 9.29-0.208 2.086 0.115 0.081-0.206-1.619-1.306-6.645-6.535 1.825-4.651 1.207 0.896z" fill="#ff585f" data-fill-palette-color="accent"></path><path d="M42.146 28.847l-10.067 9.306-9.668-10.458 11.42-10.558 2.236 2.419-7.951 7.35 1.367 1.48 5.888-5.443 2.284 2.47-5.888 5.443 1.531 1.657 7.671-7.091 3.137 1.257c0.041 0.044-0.078 0.237-0.358 0.578-0.284 0.336-0.818 0.866-1.602 1.59z" fill="#ff585f" data-fill-palette-color="accent"></path><path d="M76.419 14.467v0c-0.764 0.209-1.545 0.256-2.343 0.139-0.804-0.114-1.551-0.362-2.24-0.744v0c-0.355-0.202-0.713-0.404-1.074-0.605-0.356-0.209-0.712-0.414-1.067-0.616v0c-0.757-0.426-1.514-0.724-2.27-0.893-0.758-0.175-1.636-0.127-2.633 0.146v0l-0.234 0.064 1.402 5.12-4.489 1.228-3.249-11.872-0.744-1.802 4.722-1.292 1.479 5.402 0.699-0.192c0.266-0.073 0.463-0.165 0.593-0.277 0.129-0.112 0.253-0.285 0.369-0.518v0c0.266-0.504 0.548-1.114 0.847-1.83 0.3-0.709 0.587-1.431 0.859-2.167 0.279-0.738 0.509-1.382 0.692-1.933v0l5.723-1.566-0.579 1.662c-0.273 0.527-0.578 1.105-0.915 1.733-0.336 0.628-0.672 1.246-1.007 1.853-0.343 0.602-0.656 1.151-0.939 1.646-0.282 0.495-0.51 0.884-0.683 1.168v0c0.541 0.068 1.025 0.183 1.452 0.344 0.425 0.155 0.894 0.34 1.405 0.556v0c0.47 0.192 0.885 0.371 1.244 0.537 0.354 0.175 0.778 0.362 1.271 0.56v0c1.021 0.424 1.861 0.632 2.521 0.626 0.66-0.006 1.074-0.033 1.242-0.078v0l-0.223 2.849c-0.143 0.088-0.375 0.207-0.696 0.357-0.323 0.144-0.701 0.275-1.135 0.395z" fill="#ff585f" data-fill-palette-color="accent"></path><path d="M102.801 14.977l-4.625-0.965 2.514-12.05 0.163-1.962 10.984 2.292c1.058 0.221 1.882 0.513 2.472 0.876 0.598 0.358 1.017 0.764 1.259 1.219 0.241 0.455 0.361 0.95 0.359 1.485-0.01 0.54-0.074 1.093-0.192 1.658v0l-0.391 1.873c-0.159 0.763-0.427 1.437-0.803 2.024-0.376 0.587-0.934 1.006-1.672 1.257-0.738 0.251-1.722 0.248-2.951-0.009v0l-1.637-0.341c-0.999-0.208-1.925-0.426-2.776-0.652-0.852-0.226-1.488-0.4-1.908-0.521v0zM105.031 4.288l-0.8 3.836 4.91 1.024c0.519 0.108 0.905 0.083 1.159-0.077 0.246-0.161 0.417-0.472 0.513-0.932v0l0.253-1.213c0.096-0.46 0.071-0.815-0.076-1.066-0.147-0.25-0.49-0.431-1.029-0.543v0z" fill="#ff585f" data-fill-palette-color="accent"></path><path d="M140.443 34.022l-5.493-4.468c-1.323-1.076-2.048-2.159-2.174-3.25-0.126-1.09 0.342-2.288 1.406-3.595v0l2.917-3.587c1.038-1.276 2.103-1.968 3.195-2.076 1.091-0.117 2.305 0.369 3.644 1.459v0l5.493 4.469c1.313 1.068 2.028 2.152 2.146 3.252 0.117 1.091-0.344 2.274-1.382 3.55v0l-2.917 3.586c-1.064 1.308-2.144 2.008-3.243 2.102-1.093 0.098-2.29-0.383-3.592-1.442zM138.326 28.054v0l2.914 2.371c0.979 0.797 1.831 0.75 2.556-0.141v0l2.676-3.29c0.712-0.875 0.578-1.711-0.401-2.508v0l-2.914-2.371c-0.5-0.407-0.958-0.61-1.373-0.611-0.411-0.005-0.809 0.229-1.195 0.703v0l-2.677 3.29c-0.377 0.464-0.528 0.904-0.451 1.321 0.076 0.417 0.364 0.829 0.865 1.236z" fill="#ff585f" data-fill-palette-color="accent"></path><path d="M160.086 64.027l-4.329-10.112 11.315-4.844 1.683-0.984 4.424 10.334c0.769 1.796 0.989 3.299 0.659 4.506-0.327 1.199-1.246 2.122-2.759 2.77v0l-4.25 1.82c-1.549 0.663-2.866 0.701-3.951 0.114-1.087-0.594-2.018-1.795-2.792-3.604zM167.681 53.949l-6.991 2.993 2.185 5.102c0.489 1.142 1.264 1.493 2.325 1.054v0l3.852-1.65c0.426-0.182 0.74-0.463 0.943-0.842 0.194-0.383 0.151-0.901-0.129-1.555v0z" fill="#ff585f" data-fill-palette-color="accent"></path><path d="M8.675 124.77l-2.138-5.448 10.866-11.299 1.87 4.763-6.685 6.487-1.608 1.335 0.078 0.196 2.079-0.134 9.334 0.265 1.829 4.66-1.503 0.168z" fill="#ff585f" data-fill-palette-color="accent"></path><path d="M34.792 159.113l-10.082-9.319 9.682-10.474 11.436 10.57-2.243 2.427-7.966-7.364-1.361 1.472 5.895 5.449-2.29 2.478-5.896-5.449-1.531 1.657 7.678 7.097-1.006 3.24c-0.041 0.044-0.242-0.059-0.604-0.311-0.357-0.257-0.928-0.748-1.712-1.473z" fill="#ff585f" data-fill-palette-color="accent"></path><path d="M73.441 176.449v0c-0.764-0.209-1.463-0.568-2.098-1.075-0.634-0.508-1.15-1.102-1.548-1.782v0c-0.202-0.355-0.407-0.714-0.614-1.076-0.202-0.355-0.404-0.713-0.605-1.074v0c-0.435-0.753-0.934-1.394-1.499-1.925-0.571-0.532-1.356-0.935-2.353-1.208v0l-0.233-0.064-1.402 5.12-4.488-1.228 3.252-11.882 0.28-1.939 4.722 1.292-1.479 5.402 0.7 0.191c0.266 0.073 0.483 0.094 0.651 0.064 0.167-0.024 0.363-0.106 0.589-0.246v0c0.481-0.307 1.031-0.689 1.651-1.146 0.621-0.464 1.239-0.942 1.854-1.435 0.615-0.493 1.142-0.93 1.581-1.312v0l5.732 1.569-1.344 1.136c-0.506 0.321-1.066 0.665-1.682 1.033-0.609 0.369-1.212 0.727-1.808 1.072-0.598 0.352-1.147 0.668-1.649 0.948-0.495 0.282-0.889 0.502-1.182 0.658v0c0.431 0.334 0.789 0.679 1.074 1.036 0.287 0.35 0.596 0.748 0.927 1.193v0c0.314 0.406 0.579 0.771 0.796 1.095 0.222 0.332 0.492 0.709 0.809 1.13v0c0.663 0.885 1.283 1.493 1.86 1.825 0.569 0.337 0.938 0.528 1.107 0.575v0l-1.643 2.338c-0.168 0.003-0.428-0.013-0.781-0.046-0.351-0.04-0.743-0.12-1.177-0.239z" fill="#ff585f" data-fill-palette-color="accent"></path><path d="M105.009 175.626l-4.625 0.964-2.514-12.059-0.638-1.874 10.995-2.293c1.058-0.221 1.934-0.283 2.626-0.187 0.684 0.091 1.228 0.296 1.631 0.617 0.41 0.319 0.718 0.728 0.925 1.227 0.212 0.491 0.378 1.022 0.497 1.594v0l0.39 1.874c0.158 0.756 0.182 1.481 0.073 2.176-0.115 0.696-0.461 1.307-1.038 1.832-0.57 0.524-1.473 0.914-2.708 1.172v0l-1.637 0.341c-0.999 0.208-1.935 0.376-2.807 0.503-0.877 0.135-1.533 0.231-1.968 0.287v0zM102.776 164.917l0.802 3.846 4.921-1.026c0.519-0.108 0.863-0.286 1.03-0.534 0.16-0.253 0.193-0.606 0.098-1.06v0l-0.252-1.213c-0.096-0.46-0.262-0.779-0.498-0.956-0.235-0.171-0.621-0.2-1.161-0.087v0z" fill="#ff585f" data-fill-palette-color="accent"></path><path d="M147.291 154.377l-5.502 4.474c-1.329 1.08-2.539 1.571-3.631 1.473-1.092-0.108-2.167-0.813-3.227-2.115v0l-2.923-3.595c-1.042-1.282-1.507-2.466-1.396-3.552 0.113-1.096 0.839-2.188 2.178-3.277v0l5.502-4.474c1.313-1.068 2.52-1.547 3.621-1.439 1.097 0.103 2.166 0.796 3.209 2.078v0l2.923 3.595c1.059 1.303 1.525 2.503 1.398 3.602-0.132 1.094-0.849 2.17-2.152 3.23zM141.01 155.227v0l2.915-2.371c0.979-0.797 1.109-1.638 0.389-2.523v0l-2.682-3.298c-0.712-0.875-1.557-0.915-2.537-0.118v0l-2.915 2.37c-0.505 0.411-0.803 0.817-0.892 1.219-0.085 0.407 0.066 0.847 0.451 1.321v0l2.682 3.298c0.377 0.464 0.778 0.701 1.201 0.71 0.42 0.005 0.882-0.198 1.388-0.608z" fill="#ff585f" data-fill-palette-color="accent"></path><path d="M170.064 120.23l-4.336 10.12-11.324-4.852-1.882-0.544 4.432-10.342c0.77-1.796 1.706-2.992 2.807-3.586 1.096-0.597 2.403-0.57 3.922 0.081v0l4.259 1.825c1.543 0.661 2.478 1.591 2.804 2.79 0.323 1.19 0.095 2.693-0.682 4.508zM157.515 121.691l7 2.999 2.19-5.111c0.489-1.142 0.21-1.948-0.838-2.419v0l-3.861-1.654c-0.432-0.185-0.854-0.216-1.264-0.092-0.411 0.123-0.757 0.512-1.037 1.166v0z" fill="#ff585f" data-fill-palette-color="accent"></path><path d="M1.032 89.986c0-3.009 2.439-5.449 5.449-5.449 3.009 0 5.449 2.439 5.449 5.449 0 3.009-2.439 5.449-5.449 5.448-3.009 0-5.449-2.439-5.449-5.448z" fill="#ff585f" data-fill-palette-color="accent"></path><path d="M164.816 89.986c0-3.009 2.439-5.449 5.448-5.449 3.009 0 5.449 2.439 5.449 5.449 0 3.009-2.439 5.449-5.449 5.448-3.009 0-5.449-2.439-5.448-5.448z" fill="#ff585f" data-fill-palette-color="accent"></path></g></svg></g></svg></g></svg></g><defs></defs></svg><rect width="395.52" height="116.29331664235829" fill="none" stroke="none" visibility="hidden"></rect></g></svg></g></svg>